PathFileType	4	(X/Y/Z)	D:\TRACE\spotREDO_2-26-24\spot_Both_Motion_1_10-v60.trc
DataRate	CameraRate	NumFrames	NumMarkers	Units	OrigDataRate	OrigDataStartFrame	OrigNumFrames
100.00	100.00	      17	9	mm	100.00	1	      7000
Frame#	Time	front left toe			Front right toe			aft left toe			aft right toe			Arm			FL body			FR body			AL Body			AR Body			
		X1	Y1	Z1	X2	Y2	Z2	X3	Y3	Z3	X4	Y4	Z4	X5	Y5	Z5	X6	Y6	Z6	X7	Y7	Z7	X8	Y8	Z8	X9	Y9	Z9	

1	0.000	-244.20160	21.11005	-231.53761	272.41183	21.84986	-217.60335	-252.68127	22.18734	367.04666	256.69800	27.77554	381.48172	25.00137	1009.57483	-503.81720	-61.81596	641.11853	-322.28931	94.47772	645.61066	-320.70697	-74.96775	601.87842	562.17883	66.42949	606.64380	564.06738	
2	0.010	-244.20918	21.10855	-231.53201	272.53577	21.95382	-217.40823	-252.73044	22.17074	367.10458	256.73120	27.79813	381.45276	25.04737	1010.17670	-504.03925	-61.79060	641.16241	-322.26807	94.46139	645.64136	-320.64203	-74.99263	601.88544	562.21643	66.45340	606.68512	564.13977	
3	0.020	-244.21843	21.06746	-231.55647	272.51016	21.95780	-217.49646	-252.74542	22.22245	367.11557	256.70819	27.80991	381.46909	25.10943	1010.96387	-504.47495	-61.74541	641.06592	-322.22934	94.47778	645.64709	-320.61978	-74.95936	601.90125	562.28143	66.49844	606.67719	564.16486	
4	0.030	-244.20493	21.08469	-231.52625	272.59747	21.94212	-217.40251	-252.71815	22.19580	367.05179	256.75586	27.81860	381.50592	25.11628	1011.69452	-504.95490	-61.77241	641.07849	-322.21155	94.50096	645.62152	-320.54788	-74.92311	601.90497	562.32507	66.50010	606.73138	564.24146	
5	0.040	-244.25262	21.10278	-231.55219	272.57297	21.94479	-217.43925	-252.75214	22.18256	367.06973	256.68732	27.80897	381.48697	25.07004	1012.26984	-505.37805	-61.76675	641.03625	-322.13028	94.50159	645.60950	-320.52380	-74.92200	601.92889	562.39752	65.54993	607.01166	564.19019	
6	0.050	-244.18596	21.07878	-231.50679	272.35760	21.89615	-217.61559	-252.72047	22.19167	367.05795	256.68161	27.76735	381.45923	25.06258	1013.22125	-505.75858	-61.75003	641.01178	-322.06705	94.46944	645.56744	-320.50168	-74.88279	601.91174	562.48126	65.48428	606.99536	564.18878	
7	0.060	-244.21484	21.05454	-231.52048	272.39359	21.89192	-217.62148	-252.69046	22.20481	367.10059	256.72864	27.81141	381.45682	25.11716	1013.88684	-506.13422	-61.80208	641.01349	-322.06665	94.46441	645.58929	-320.45245	-74.82510	601.92163	562.50830	65.56159	607.02051	564.26636	
8	0.070	-244.22685	21.08992	-231.51439	272.58374	21.91154	-217.42361	-252.75467	22.16640	367.12320	256.72070	27.81487	381.50571	25.05799	1014.30743	-506.42856	-61.80927	641.01862	-322.05417	94.48716	645.59418	-320.40451	-74.80799	601.88885	562.59656	65.53757	607.01947	564.33179	
9	0.080	-244.20605	21.06916	-231.51837	272.44241	21.89644	-217.55714	-252.65263	22.15187	367.06711	256.71432	27.79812	381.46072	25.06392	1015.28430	-507.03824	-61.89454	641.08154	-321.97412	94.47424	645.61719	-320.36499	-74.79115	601.87360	562.63910	66.76211	606.70410	564.48224	
10	0.090	-244.18713	21.09429	-231.51817	272.54449	21.97880	-217.42609	-252.70895	22.14398	367.07526	256.71817	27.82168	381.48022	24.96666	1016.02979	-507.50290	-61.88507	641.06226	-321.89279	94.43276	645.65228	-320.33124	-74.76816	601.86768	562.74933	66.71825	606.69604	564.59113	
11	0.100	-244.20825	21.09006	-231.51888	272.34470	21.90569	-217.63513	-252.70958	22.19356	367.08536	256.74197	27.81985	381.48792	24.89747	1016.64899	-507.94266	-61.95879	640.99567	-321.79398	94.37505	645.67523	-320.29843	-74.73148	601.90491	562.77667	66.72179	606.72369	564.58868	
12	0.110	-244.22279	21.11191	-231.55101	272.34467	21.93025	-217.62325	-252.69833	22.22335	367.08939	256.69867	27.81175	381.48093	24.91889	1017.48401	-508.21344	-62.08554	641.06946	-321.67773	94.34908	645.66278	-320.24762	-74.73432	601.90143	562.86780	66.72495	606.73395	564.63184	
13	0.120	-244.24828	21.12899	-231.51674	272.51474	22.02528	-217.44193	-252.72064	22.21350	367.09344	256.71872	27.79383	381.49283	24.84799	1018.17572	-508.48941	-62.14220	641.09772	-321.60266	94.32073	645.67993	-320.16846	-74.67587	601.91766	562.90601	66.83304	606.70355	564.69751	
14	0.130	-244.20380	21.12671	-231.50560	272.53882	22.00581	-217.42430	-252.73444	22.22728	367.12067	256.79272	27.76252	381.51126	24.83347	1018.91443	-509.19894	-62.19910	641.07581	-321.52820	94.22829	645.72656	-320.08646	-74.60930	601.89575	563.00012	66.80633	606.67188	564.71442	
15	0.140	-244.23196	21.10382	-231.51442	272.53867	21.95363	-217.48650	-252.67392	22.18537	367.13892	256.76178	27.79044	381.52051	24.70368	1019.54462	-509.69626	-62.34332	641.10107	-321.46008	94.27673	645.73419	-319.96127	-74.54530	601.87158	563.06274	66.83069	606.63361	564.77899	
16	0.150	-244.22525	21.07621	-231.50465	272.38943	21.89609	-217.58672	-252.64160	22.20755	367.10867	256.72040	27.74368	381.48041	24.78938	1020.25171	-510.09088	-62.37407	641.07599	-321.35339	94.19059	645.74060	-319.90237	-74.50103	601.86346	563.14081	66.83816	606.59583	564.83563	
17	0.160	-244.18968	21.07234	-231.50874	272.53131	21.99420	-217.43367	-252.66121	22.20236	367.14136	256.71454	27.77471	381.47653	24.81661	1021.01404	-510.34610	-62.41881	641.07501	-321.22531	94.16788	645.73090	-319.82129	-74.45744	601.87659	563.20905	66.89662	606.62964	564.90436	
